<svg width="40" height="41" viewBox="0 0 40 41" fill="none" xmlns="http://www.w3.org/2000/svg">
<path d="M3.39568 31.1495L3.58468 31.4317C4.741 33.1616 6.09943 34.6421 7.65081 35.8916L7.68887 35.9218L7.94612 36.1331V35.8036C7.78337 34.6998 7.66656 33.3768 7.61931 32.0355L7.618 31.9725V31.8556H7.49987C6.07843 31.7178 4.7935 31.4947 3.544 31.1823L3.72775 31.2217L3.39568 31.1495ZM8.79137 27.7055V27.8919C8.66537 28.7608 8.57612 29.7976 8.54462 30.8476L8.54331 30.8896V31.017H10.0697C10.5409 31.017 11.0935 31.0393 11.6211 31.017H11.9637L11.692 30.8056C10.6499 29.9473 9.76 28.955 9.03287 27.8473L9.00268 27.7974L8.79137 27.7055ZM4.61893 25.788L4.56118 25.9192C3.97712 27.0571 3.42981 28.4038 2.998 29.8016L2.94943 29.9853V30.1166H3.08987C4.35118 30.4801 5.84875 30.7702 7.38568 30.9277L7.49856 30.9369L7.61668 30.9487V30.807C7.64293 29.5916 7.74006 28.4248 7.90412 27.2803L7.88575 27.4338V27.3275H7.78075C6.57456 26.8327 5.57706 26.3392 4.61762 25.7893L4.74756 25.8575L4.61893 25.788ZM0.447809 22.8283V23.1564C0.718184 25.1855 1.26287 27.0256 2.04906 28.7306L1.99918 28.6111L2.1265 28.9156L2.24462 28.598C2.69743 27.2947 3.166 26.2106 3.70018 25.1685L3.63062 25.3181L3.72381 25.2144L3.61881 25.1435C2.51237 24.4426 1.56212 23.7483 0.659121 23.0002L0.706371 23.0383L0.447809 22.8283ZM6.96962 22.0408L6.77143 22.323C6.2845 22.9884 5.78706 23.7549 5.33293 24.5503L5.26731 24.6736L5.19643 24.7918L5.31325 24.8626C5.99312 25.2538 6.83443 25.6738 7.69937 26.0505L7.87525 26.1187L8.19156 26.2591L8.05112 25.9428C7.55631 24.9099 7.17831 23.7129 6.97881 22.4555L6.96831 22.3807L6.96962 22.0408ZM3.92725 18.644L3.80912 18.7254C2.72762 19.6179 1.75506 20.5485 0.857309 21.5446L0.836309 21.5696L0.741809 21.6641L0.849434 21.7573C1.81806 22.6117 2.88512 23.4136 4.01125 24.129L4.11493 24.1906L4.23306 24.272L4.30393 24.1408C4.89587 23.0947 5.46681 22.2166 6.085 21.374L6.03118 21.4501V21.3688L5.96031 21.2874C5.30406 20.5353 4.66356 19.7124 4.069 18.854L4.00862 18.7608L3.92725 18.644ZM7.55762 16.1752L7.26231 16.3393C6.49975 16.7868 5.73718 17.279 5.00743 17.7975L4.90112 17.8788L4.9825 17.9838C5.48912 18.7005 6.04037 19.4053 6.61656 20.0773L6.841 20.3476V20.0064C6.88562 18.7333 7.10087 17.5258 7.46443 16.3852L7.43818 16.4797L7.55762 16.1752ZM1.37443 14.1198L1.27075 14.448C0.716871 16.0846 0.372996 17.972 0.317871 19.9316V19.9578V20.3004L0.552809 20.051C1.35868 19.2202 2.20656 18.4445 3.09775 17.72L3.15156 17.678L3.24475 17.6071L3.17387 17.5021C2.61606 16.6438 2.05562 15.6384 1.56081 14.5963L1.49256 14.4348L1.37443 14.1198ZM6.46825 11.2625C4.83418 11.5644 3.40225 11.9713 2.02806 12.495L2.2 12.4372H2.07268V12.5671C2.72237 14.1868 3.41931 15.5596 4.21993 16.8616L4.15037 16.7396L4.22125 16.8564L4.33937 16.7763C5.14918 16.1883 6.07843 15.6003 7.04443 15.0701L7.18356 15.0005L7.27675 14.9428V14.8509C7.01687 13.9098 6.78193 12.7456 6.62312 11.5578L6.60737 11.4161V11.2651L6.46825 11.2625ZM10.6512 11.0381C9.73768 11.0512 8.85437 11.1155 7.9855 11.2271L8.101 11.2153C8.206 12.0736 8.35825 12.9176 8.54725 13.7641C9.1615 12.7299 9.85844 11.8348 10.6525 11.0381H10.6512ZM13.4822 7.05464C13.2473 7.77127 13.0478 8.51152 12.8588 9.26358C13.645 8.76089 14.5493 8.31727 15.5035 7.97602L15.598 7.94714C14.9037 7.61902 14.212 7.32371 13.4822 7.05464ZM6.25562 6.58346C5.10587 7.72402 4.09656 9.00502 3.25787 10.3989L3.208 10.4868C4.02175 10.2296 5.05862 9.97758 6.1165 9.78464L6.28712 9.75839C6.24775 9.19927 6.22543 8.54827 6.22543 7.89071C6.22543 7.43002 6.23593 6.97327 6.25825 6.51783L6.25562 6.58346ZM7.99468 5.67914C7.94743 6.25271 7.91987 6.92077 7.91987 7.59539C7.91987 8.27002 7.94743 8.93808 7.99993 9.59827L7.99468 9.51164C8.95806 9.40533 9.95687 9.34758 10.9662 9.33577C11.2182 8.17421 11.4899 7.21477 11.8101 6.27764L11.7537 6.46927C10.7102 6.15558 9.43843 5.87996 8.13775 5.69621L7.99468 5.67914ZM15.7739 2.07371C15.2266 2.98327 14.6806 4.06083 14.2081 5.17646L14.1424 5.35102C15.2187 5.72771 16.0889 6.09389 16.9328 6.50208L16.7753 6.43252C16.9967 6.14289 17.2316 5.86464 17.4801 5.59777C17.8642 5.12877 18.2558 4.68208 18.6548 4.25771C17.7977 3.49908 16.858 2.77983 15.8684 2.13014L15.7752 2.07239L15.7739 2.07371ZM13.7185 1.95558C12.0739 2.53046 10.6525 3.23658 9.33737 4.09364L9.41481 4.04639C10.5921 4.25246 11.5922 4.49789 12.5687 4.79977L12.3889 4.75121C12.8641 3.60802 13.309 2.68927 13.7986 1.79677L13.7185 1.95558ZM20.0736 0.897705C19.2861 0.899018 18.5104 0.944955 17.7479 1.03421L17.8411 1.02502C18.9527 1.79546 19.9227 2.56721 20.8388 3.39671L20.8152 3.37571L21.6027 4.09364L20.8401 4.83127C20.1957 5.44946 19.5919 6.09521 19.0236 6.76983L18.9921 6.80789L18.7007 7.16096C19.1194 7.11239 19.609 7.08221 20.1051 7.07958H20.1104C27.4315 7.16621 33.3325 13.121 33.3325 20.454C33.3325 27.8407 27.3436 33.8296 19.9568 33.8296C17.4171 33.8296 15.0428 33.1222 13.0216 31.8937L13.0806 31.9278C12.1829 32.0381 11.1421 32.1011 10.0881 32.1011C10.0789 32.1011 10.0697 32.1011 10.0606 32.1011H8.65093C8.69556 33.7995 8.85175 35.4217 9.11162 37.0085L9.08406 36.8011C12.1606 38.8998 15.9602 40.152 20.0526 40.152C30.8926 40.152 39.6797 31.3648 39.6797 20.5248C39.6797 9.69277 30.9044 0.909518 20.0736 0.897705Z" fill="black"/>
</svg>
