<svg width="36" height="27" viewBox="0 0 36 27" fill="none" xmlns="http://www.w3.org/2000/svg">
<path d="M30.0354 13.4083C30.1969 13.9628 30.3121 14.6088 30.3573 15.275L30.3584 15.3035C30.3584 17.9232 27.4146 19.3767 23.5422 19.3767C14.7939 19.3826 7.12976 14.255 7.12976 10.8682C7.12976 10.8658 7.12976 10.8623 7.12976 10.8623C7.12976 10.3683 7.23307 9.89922 7.42069 9.47409L7.41238 9.49666C4.26788 9.65341 0.192383 10.2163 0.192383 13.812C0.192383 19.702 14.1491 26.9612 25.1988 26.9612C33.6716 26.9612 35.8079 23.1292 35.8079 20.1058C35.8079 17.7237 33.7499 15.0233 30.0402 13.4107L30.0354 13.4083ZM23.9495 15.5446C26.2901 15.5446 29.678 15.0613 29.678 12.2766C29.6792 12.2528 29.6792 12.2255 29.6792 12.197C29.6792 11.9987 29.6566 11.8052 29.6151 11.6199L29.6186 11.6377L28.2233 5.58266C27.9027 4.25028 27.6213 3.64585 25.2819 2.47735C23.2821 1.42166 20.9629 0.572596 18.5226 0.0489081L18.3433 0.0168457C17.2556 0.0168457 16.9385 1.42047 15.6394 1.42047C14.3901 1.42047 13.4627 0.373095 12.293 0.373095C11.1696 0.373095 10.4381 1.13785 9.87407 2.71128C9.87407 2.71128 8.30063 7.14778 8.09757 7.7926C8.07026 7.8876 8.05482 7.99684 8.05482 8.10966C8.05482 8.12628 8.05482 8.14291 8.05601 8.15953V8.15716C8.05601 9.88141 14.8485 15.5387 23.9495 15.5387V15.5446Z" fill="black"/>
</svg>
