<svg width="23" height="23" viewBox="0 0 23 23" fill="none" xmlns="http://www.w3.org/2000/svg">
<path fill-rule="evenodd" clip-rule="evenodd" d="M0 11.5C0 5.14872 5.14872 0 11.5 0C17.8512 0 23 5.14872 23 11.5C23 17.8512 17.8512 23 11.5 23C5.14872 23 0 17.8512 0 11.5ZM11.5 2.3C6.41898 2.3 2.3 6.41898 2.3 11.5C2.3 16.581 6.41898 20.7 11.5 20.7C16.581 20.7 20.7 16.581 20.7 11.5C20.7 6.41898 16.581 2.3 11.5 2.3ZM7.23682 7.23682C7.68593 6.78773 8.41407 6.78773 8.86318 7.23682L11.5 9.87367L14.1368 7.23682C14.5859 6.78773 15.3141 6.78773 15.7632 7.23682C16.2122 7.68593 16.2122 8.41407 15.7632 8.86318L13.1263 11.5L15.7632 14.1368C16.2122 14.5859 16.2122 15.3141 15.7632 15.7632C15.3141 16.2122 14.5859 16.2122 14.1368 15.7632L11.5 13.1263L8.86318 15.7632C8.41407 16.2122 7.68593 16.2122 7.23682 15.7632C6.78773 15.3141 6.78773 14.5859 7.23682 14.1368L9.87367 11.5L7.23682 8.86318C6.78773 8.41407 6.78773 7.68593 7.23682 7.23682Z" fill="black"/>
</svg>
