<svg width="23" height="21" viewBox="0 0 23 21" fill="none" xmlns="http://www.w3.org/2000/svg">
<path fill-rule="evenodd" clip-rule="evenodd" d="M21.8491 3.26988C21.86 3.94026 21.7733 4.78191 21.6957 5.39446C21.6654 5.63337 21.6243 5.83221 21.5801 5.99553C22.5661 7.74789 23 9.85607 23 12.1579C23 14.8861 21.6346 17.1327 19.5084 18.6647C17.4017 20.1827 14.5597 21 11.5 21C8.4403 21 5.5983 20.1827 3.49163 18.6647C1.36536 17.1327 0 14.8861 0 12.1579C0 9.85607 0.433918 7.74789 1.41993 5.99552C1.37576 5.83221 1.33463 5.63336 1.30435 5.39446C1.22674 4.78191 1.14003 3.94026 1.15093 3.26988C1.16321 2.51454 1.26594 1.75925 1.37986 1.00998C1.43254 0.663466 1.51619 0.337624 1.90765 0.131713C2.30753 -0.0786297 2.72865 -0.000211298 3.14408 0.112846C4.54534 0.494195 5.8591 1.02909 7.09323 1.67212C8.39442 1.29633 9.86504 1.10526 11.5 1.10526C13.135 1.10526 14.6056 1.29633 15.9068 1.67212C17.1409 1.02909 18.4546 0.494195 19.8559 0.112846C20.2714 -0.000211298 20.6925 -0.0786297 21.0924 0.131713C21.4838 0.337624 21.5674 0.663466 21.6201 1.00998C21.7341 1.75925 21.8368 2.51454 21.8491 3.26988ZM20.7 12.1579C20.7 10.2931 20.254 7.73684 17.825 7.73684C16.73 7.73684 15.6945 8.01338 14.6595 8.28992C13.6254 8.56601 12.5919 8.8421 11.5 8.8421C10.4081 8.8421 9.37457 8.56601 8.34052 8.28992C7.3055 8.01338 6.26998 7.73684 5.175 7.73684C2.75286 7.73684 2.3 10.3007 2.3 12.1579C2.3 14.1071 3.25157 15.729 4.87126 16.896C6.51055 18.0772 8.84356 18.7895 11.5 18.7895C14.1564 18.7895 16.4894 18.0771 18.1287 16.896C19.7485 15.729 20.7 14.1071 20.7 12.1579ZM9.2 12.7105C9.2 14.2366 8.42769 15.4737 7.475 15.4737C6.52231 15.4737 5.75 14.2366 5.75 12.7105C5.75 11.1845 6.52231 9.94737 7.475 9.94737C8.42769 9.94737 9.2 11.1845 9.2 12.7105ZM15.525 15.4737C16.4777 15.4737 17.25 14.2366 17.25 12.7105C17.25 11.1845 16.4777 9.94737 15.525 9.94737C14.5723 9.94737 13.8 11.1845 13.8 12.7105C13.8 14.2366 14.5723 15.4737 15.525 15.4737Z" fill="black"/>
</svg>
