<svg width="17" height="17" viewBox="0 0 17 17" fill="none" xmlns="http://www.w3.org/2000/svg">
<path d="M6 16H1.83333C1.3731 16 1 15.6181 1 15.147V8.67664C1 8.45044 1.0878 8.23344 1.24408 8.07351L7.91075 1.24983C8.23617 0.916723 8.76383 0.916723 9.08925 1.24983L15.7559 8.07351C15.9122 8.23344 16 8.45044 16 8.67664V15.147C16 15.6181 15.6269 16 15.1667 16H11M6 16H11M6 16V10.8822C6 10.4111 6.3731 10.0293 6.83333 10.0293H10.1667C10.6269 10.0293 11 10.4111 11 10.8822V16" stroke="black" stroke-width="2" stroke-linecap="round" stroke-linejoin="round"/>
</svg>
