<svg width="23" height="22" viewBox="0 0 23 22" fill="none" xmlns="http://www.w3.org/2000/svg">
<path fill-rule="evenodd" clip-rule="evenodd" d="M5.22133 22V7.1559H0.291439V21.9999H5.22133V22ZM2.7569 5.12994C4.47551 5.12994 5.54607 3.98913 5.54607 2.5647C5.51357 1.1086 4.47551 0 2.78913 0C1.10247 4.50414e-05 0 1.10865 0 2.56474C0 3.98918 1.06997 5.12999 2.72445 5.12999L2.7569 5.12994ZM7.94982 22C7.94982 22 8.0145 8.54867 7.94982 7.15595H12.8805V9.30865H12.8478C13.4961 8.29567 14.6641 6.80737 17.3235 6.80737C20.5681 6.80737 23 8.92895 23 13.4885V22H18.0702V14.0588C18.0702 12.0635 17.3568 10.7019 15.5722 10.7019C14.2105 10.7019 13.399 11.6198 13.0426 12.5071C12.9122 12.823 12.8805 13.2666 12.8805 13.7102V22H7.94982Z" fill="black"/>
</svg>
