<svg width="26" height="19" viewBox="0 0 26 19" fill="none" xmlns="http://www.w3.org/2000/svg">
<path d="M26 2.59537V17.2726C26 18.2265 25.207 18.9989 24.2277 18.9989H20.0904V9.21484L13 14.396L5.90958 9.21484V19H1.77233C1.5395 19 1.30894 18.9553 1.09384 18.8685C0.878741 18.7817 0.683312 18.6544 0.518722 18.494C0.354131 18.3336 0.223605 18.1431 0.1346 17.9336C0.0455958 17.724 -0.00014199 17.4994 3.31122e-07 17.2726V2.59537C3.31122e-07 0.460641 2.50142 -0.758151 4.25425 0.5229L5.90958 1.73325L13 6.91233L20.0904 1.73114L21.7458 0.5229C23.4975 -0.757096 26 0.460641 26 2.59537Z" fill="black"/>
</svg>
