<svg width="23" height="19" viewBox="0 0 23 19" fill="none" xmlns="http://www.w3.org/2000/svg">
<path d="M20.6312 4.79125C20.6312 4.99254 20.6312 5.20567 20.6312 5.40695C20.642 7.19508 20.3029 8.96759 19.6336 10.6217C18.9641 12.2758 17.9778 13.7786 16.7317 15.043C15.4855 16.3075 14.0044 17.3082 12.3743 17.9875C10.7441 18.6667 8.99716 19.0108 7.2349 18.9997C4.67018 19.0073 2.15788 18.2632 0 16.8566C0.385084 16.8566 0.746829 16.8566 1.16692 16.8566C3.28308 16.8566 5.33789 16.1353 7.00152 14.8082C6.0154 14.7992 5.05741 14.4736 4.26498 13.8781C3.47254 13.2825 2.88638 12.4475 2.59056 11.4929C2.88772 11.541 3.18819 11.5648 3.48909 11.564C3.90585 11.5609 4.32089 11.5093 4.72602 11.41C3.67172 11.1917 2.72416 10.6105 2.0437 9.76457C1.36323 8.91881 0.991672 7.86039 0.991882 6.7686C1.64429 7.13376 2.37126 7.34048 3.11568 7.37245C2.45884 6.9316 1.92068 6.33155 1.54986 5.62658C1.17904 4.92161 0.987272 4.13397 0.991882 3.33488C0.99334 2.50307 1.21068 1.68632 1.62202 0.966796C2.80263 2.44407 4.27587 3.65325 5.94634 4.51603C7.61681 5.37882 9.44728 5.87598 11.3191 5.97529C11.245 5.61695 11.2059 5.25209 11.2024 4.88598C11.172 3.91137 11.4389 2.95098 11.9664 2.13598C12.4941 1.32097 13.2567 0.691068 14.1503 0.332268C15.0438 -0.0265202 16.0249 -0.0967099 16.9592 0.131289C17.8936 0.359288 18.7357 0.87437 19.3709 1.60618C20.4269 1.39093 21.438 0.99024 22.3582 0.422137C22.0067 1.52704 21.2676 2.46247 20.2811 3.05071C21.2189 2.94788 22.1358 2.70032 23 2.3166C22.3601 3.26497 21.5718 4.10087 20.6662 4.79125H20.6312Z" fill="black"/>
</svg>
